<svg version="1.1" xmlns="http://www.w3.org/2000/svg" xmlns:xlink="http://www.w3.org/1999/xlink" width="1004.95123" height="1026" viewBox="523.04877,22.5,1004.95123,1026"><g id="document" fill="#ffffff" fill-rule="nonzero" stroke="#000000" stroke-width="0" stroke-linecap="butt" stroke-linejoin="miter" stroke-miterlimit="10" stroke-dasharray="" stroke-dashoffset="0" font-family="none" font-weight="none" font-size="none" text-anchor="none" style="mix-blend-mode: normal"><rect x="610" y="98.21429" transform="scale(1,1.4)" width="700" height="500" id="Shape 1 1" vector-effect="non-scaling-stroke"/></g><g fill="none" fill-rule="nonzero" stroke="none" stroke-width="none" stroke-linecap="round" stroke-linejoin="round" stroke-miterlimit="10" stroke-dasharray="" stroke-dashoffset="0" font-family="none" font-weight="none" font-size="none" text-anchor="none" style="mix-blend-mode: normal"><g id="stage"><g id="layer1 1"><path d="M614,835.5l344,-349l355,-350l-4,699z" id="Path 1" fill="#00ff09" stroke="#00a618" stroke-width="1"/><path d="M810,22.5" id="Path 1" fill="none" stroke="#000000" stroke-width="1"/><path d="M690,797.5c0,-275.5 0,-390.8125 0,-615c0,160.1875 0,275.5 0,615" id="Path 1" fill="#00a618" stroke="none" stroke-width="0"/><path d="M1528,1048.5" id="Path 1" fill="none" stroke="#000000" stroke-width="1"/><path d="M613.97073,833.44249l0.02927,-696.94249l697.98582,0.9999l-346.95081,342.06418z" id="Path 1" fill="#2af76c" stroke="#00a618" stroke-width="1"/><g id="Group 1" fill="#00bf12"><path d="M691.85253,299.75761c12.83367,19.30954 29.11876,35.30648 46.78108,50.19372c50.73957,46.24433 103.0939,93.22233 142.18703,150.09566c30.20292,43.93972 49.9549,97.46824 55.82083,150.43569c5.39922,48.75325 -0.56195,99.34767 -7.39381,147.67416c-6.56643,46.44891 -19.88152,90.11525 -35.05098,134.37014c-24.00527,-48.59208 -63.2562,-86.78687 -100.33651,-125.47354c-29.24201,-30.50881 -57.42002,-61.88645 -85.87242,-93.12011c-27.62856,-30.32929 -61.39455,-63.43332 -74.05198,-103.86185c-7.58802,-24.23654 -4.04114,-50.36737 -0.81912,-75.01497c8.47183,-64.80742 35.24804,-125.10102 58.22261,-185.72391" id="Path 1 1 1" stroke="#ffffff" stroke-width="1"/><path d="M811.89211,580.18028c11.72239,-9.85288 21.96252,-16.96435 36.02288,-23.13707c5.24349,-2.30197 11.46379,-5.81882 17.31858,-6.69156c8.37781,-1.24884 16.93325,1.83725 25.14148,3.06338" id="Path 1 1 1" stroke="#00fe03" stroke-width="2"/><path d="M893.96052,926.57424c-3.18415,-12.87029 -5.21474,-25.44309 -5.11178,-38.72824c0.12648,-16.32006 2.58039,-31.40071 -3.64722,-47.04819c-4.96861,-12.48413 -10.15756,-25.98417 -16.6315,-37.70384c-8.22971,-14.8981 -18.91445,-28.49144 -27.56891,-43.16987c-8.2524,-13.99649 -14.10404,-29.85681 -20.82235,-44.62903c-4.68183,-10.29441 -11.40141,-20.65463 -13.35428,-31.98804c-1.85685,-10.7762 2.75613,-19.34735 3.30612,-29.6386c0.464,-8.68238 0.15246,-17.43225 1.28881,-26.05244c1.62525,-12.32882 5.4356,-24.68604 3.49721,-37.20806c-2.15819,-13.94196 -4.30406,-30.45372 -10.26161,-43.36796c-13.25337,-28.72942 -35.05136,-52.82155 -46.57339,-82.63785c-4.8401,-12.52502 -5.89865,-25.65465 -9.82175,-38.3626c-5.24648,-16.99467 -13.55711,-32.46153 -21.01112,-48.43563c-11.4477,-24.5327 -17.70511,-50.47554 -35.16005,-71.89356" id="Path 1 1 1" stroke="#00fe03" stroke-width="2"/><path d="M774.05705,485.94383c12.81439,-2.0296 21.11293,-11.14625 33.01178,-15.29684c15.91547,-5.55167 31.14608,-2.32673 46.86651,1.95292" id="Path 1 1 1" stroke="#00fe03" stroke-width="2"/><path d="M770.9728,493.59154c-10.12308,-9.22027 -21.08992,-19.46369 -33.10726,-26.15298c-6.09682,-3.39371 -12.64176,-5.6179 -19.01785,-8.36939c-7.15095,-3.08586 -13.5255,-6.25051 -21.38614,-7.02329c-6.49116,-0.63815 -13.03047,1.33671 -19.31026,2.66322" id="Path 1 1 1" stroke="#00fe03" stroke-width="2"/><path d="M803.51129,581.50767c-18.49532,-13.43764 -36.73927,-26.59257 -56.49935,-38.115c-9.15629,-5.33918 -19.183,-12.37739 -29.60531,-15.00399c-21.78387,-5.48989 -45.74453,-2.77105 -63.37041,11.64973" id="Path 1 1 1" stroke="#00fe03" stroke-width="2"/><path d="M825.205,745.59723c-13.15294,-12.13929 -28.62515,-26.30898 -45.25844,-33.42778c-27.33377,-11.69843 -58.79865,-14.68497 -87.80046,-20.22681" id="Path 1 1 1" stroke="#00fe03" stroke-width="2"/><path d="M843.29402,751.32326c12.71908,-4.52098 25.68099,-9.15956 39.10723,-11.03297c9.09789,-1.26946 18.49068,0.06655 27.59113,0.52974c9.0616,0.4612 18.08574,0.00512 27.17842,0.49332" id="Path 1 1 1" stroke="#00fe03" stroke-width="2"/><path d="M811.05917,683.40483c12.45546,-8.85794 21.43472,-21.19021 33.40555,-30.57527c7.14278,-5.5999 14.06593,-7.83977 22.42119,-11.0217c9.02205,-3.43586 17.39429,-7.92549 27.10493,-9.15962c11.42255,-1.4517 23.31044,0.35718 34.75604,0.91247" id="Path 1 1 1" stroke="#00fe03" stroke-width="2"/><path d="M789.29162,672.53405c-20.25379,-14.71524 -42.04586,-25.74183 -63.05707,-39.13496c-20.26143,-12.9152 -40.58443,-27.30953 -63.16737,-36.01722c-11.81334,-4.55507 -24.19113,-7.2034 -35.97567,-11.94621" id="Path 1 1 1" stroke="#00fe03" stroke-width="2"/></g><g id="Group 1" fill="#00bf12"><path d="M695.70371,691.06766c22.33029,-6.23856 42.57665,-16.78328 62.19321,-28.98074c59.66036,-33.96591 120.51747,-69.24085 186.68766,-88.84579c51.12238,-15.14657 108.13472,-17.39059 160.32243,-6.60158c48.03555,9.93062 94.3116,31.23456 138.16166,52.66576c42.1464,20.59855 79.56097,46.75559 116.96225,74.85811c-53.63185,7.81459 -102.08646,33.3416 -150.33812,56.65223c-38.05188,18.38307 -76.60128,35.48572 -115.09852,52.89383c-37.38256,16.90405 -79.30063,38.78771 -121.66181,38.33254c-25.39515,-0.27287 -49.151,-11.72102 -71.5966,-22.40187c-59.01758,-28.08378 -108.0859,-72.18122 -158.64215,-112.76484" id="Path 1 1 1" stroke="#ffffff" stroke-width="1"/><path d="M999.4958,663.55861c-5.74823,-14.19336 -9.34727,-26.12987 -10.87298,-41.40954c-0.56898,-5.6982 -1.99152,-12.70083 -1.01232,-18.53876c1.40117,-8.35369 6.97999,-15.53674 10.68259,-22.96433" id="Path 1 1 1" stroke="#00fe03" stroke-width="2"/><path d="M1354.29657,692.54853c-13.22433,-0.94883 -25.80926,-2.90283 -38.41237,-7.10609c-15.48222,-5.16347 -29.06646,-12.15745 -45.87254,-11.06998c-13.40849,0.86762 -27.85128,1.63086 -40.9979,4.16637c-16.71206,3.22315 -32.94186,9.18437 -49.57625,12.87937c-15.86159,3.52334 -32.7539,4.18748 -48.87919,6.0121c-11.23733,1.27154 -23.16695,4.46075 -34.54913,2.81582c-10.82257,-1.56406 -17.54873,-8.5999 -27.16633,-12.30313c-8.11405,-3.12429 -16.53194,-5.53186 -24.37908,-9.27638c-11.22318,-5.35552 -21.79813,-12.79796 -34.30627,-14.82397c-13.92651,-2.25574 -30.29324,-5.31732 -44.41639,-3.64207c-31.41882,3.72682 -61.06774,17.01306 -92.98523,18.75743c-13.40768,0.73276 -26.22181,-2.31778 -39.52009,-2.51365c-17.78414,-0.26195 -35.06213,2.86242 -52.55782,5.01533c-26.86952,3.30639 -53.47627,1.24076 -79.23989,11.22287" id="Path 1 1 1" stroke="#00fe03" stroke-width="2"/><path d="M898.17993,670.42122c2.0296,-12.81439 -4.07646,-23.52397 -4.34696,-36.12306c-0.3618,-16.85207 7.41181,-30.34068 16.33989,-43.96922" id="Path 1 1 1" stroke="#00fe03" stroke-width="2"/><path d="M904.50025,675.71779c-11.8972,6.7784 -25.02821,14.04309 -35.10367,23.40516c-5.11163,4.74971 -9.24946,10.287 -13.8366,15.50077c-5.14459,5.84738 -10.1242,10.932 -13.28823,18.16911c-2.61279,5.97626 -2.75535,12.80578 -3.43433,19.18812" id="Path 1 1 1" stroke="#00fe03" stroke-width="2"/><path d="M998.16841,671.93942c-18.49532,13.43764 -36.6441,26.72357 -53.70878,41.95589c-7.90731,7.05825 -17.69947,14.41929 -23.41818,23.51984c-11.95278,19.02122 -16.77126,42.64933 -8.50298,63.86881" id="Path 1 1 1" stroke="#00fe03" stroke-width="2"/><path d="M1160.93058,702.01394c-15.60963,8.75794 -33.86699,19.09421 -45.77733,32.71359c-19.57247,22.38094 -32.13602,51.38294 -46.36867,77.25277" id="Path 1 1 1" stroke="#00fe03" stroke-width="2"/><path d="M1171.96617,686.5797c-0.3693,-13.49363 -0.7754,-27.25453 1.59182,-40.60256c1.60408,-9.0449 5.77723,-17.56511 9.02994,-26.07702c3.23882,-8.47557 5.59367,-17.19898 8.86777,-25.69577" id="Path 1 1 1" stroke="#00fe03" stroke-width="2"/><path d="M1097.41078,696.24892c-4.57545,-14.5831 -13.52939,-26.93377 -18.75593,-41.21885c-3.11858,-8.52365 -3.10946,-15.80012 -3.55373,-24.72971c-0.47973,-9.64222 -2.16246,-18.99206 -0.33543,-28.6088c2.14911,-11.3121 7.54302,-22.05917 11.60802,-32.77299" id="Path 1 1 1" stroke="#00fe03" stroke-width="2"/><path d="M1080.34551,713.59183c-20.25379,14.71524 -37.47482,32.03332 -56.70527,47.87747c-18.54421,15.27875 -38.51419,30.15898 -53.7742,48.94581c-7.98265,9.82756 -14.32631,20.78116 -22.47861,30.52331" id="Path 1 1 1" stroke="#00fe03" stroke-width="2"/></g><g id="Group 1" fill="#00bf12"><path d="M1069.05177,808.32642c0.96721,-23.16519 -2.80494,-45.67912 -8.34356,-68.1048c-13.86744,-67.23642 -28.61001,-136.01552 -26.80771,-205.00538c1.39244,-53.30082 16.87603,-108.21622 43.26388,-154.51569c24.28839,-42.61579 58.84972,-80.04365 92.78241,-115.12494c32.61434,-33.71831 69.0529,-61.21871 107.33762,-88.10528c-9.14103,53.42176 0.1633,107.39311 7.42244,160.48655c5.72466,41.87017 10.07783,83.81784 14.73762,125.81029c4.52486,40.77657 12.38407,87.40544 -1.13915,127.55266c-8.10705,24.0679 -26.33585,43.12338 -43.43001,61.16986c-44.9467,47.45069 -102.0488,80.49057 -156.26886,116.0314" id="Path 1 1 1" stroke="#ffffff" stroke-width="1"/><path d="M1136.76603,510.90221c-15.27499,1.0809 -27.73945,0.8152 -42.74275,-2.45543c-5.59514,-1.21971 -12.69462,-2.03072 -17.94423,-4.76602c-7.51184,-3.91402 -12.61938,-11.43949 -18.53927,-17.25611" id="Path 1 1 1" stroke="#00fe03" stroke-width="2"/><path d="M1273.97655,182.42501c-4.98894,12.28388 -10.73626,23.64904 -18.62837,34.33644c-9.69502,13.12886 -20.54446,23.88699 -24.70357,40.20656c-3.31829,13.02035 -7.05548,26.9921 -8.70659,40.2788c-2.09891,16.89012 -1.44474,34.16769 -3.07089,51.12976c-1.5506,16.17404 -6.13898,32.44481 -9.38665,48.34471c-2.26322,11.08026 -2.91655,23.41153 -7.99826,33.72832c-4.83186,9.80956 -13.60185,14.03232 -20.09583,22.03484c-5.47876,6.75146 -10.36976,14.01337 -16.35591,20.31932c-8.56155,9.01893 -18.90758,16.77646 -24.69965,28.04634c-6.44887,12.54783 -14.41819,27.16744 -17.18923,41.11704c-6.16453,31.03273 -2.69058,63.3362 -10.89464,94.23057c-3.4463,12.97789 -10.30732,24.22219 -14.60301,36.80908c-5.74473,16.83278 -8.11248,34.23061 -11.4714,51.53528c-5.15857,26.57616 -15.34504,51.24237 -13.8129,78.82967" id="Path 1 1 1" stroke="#00fe03" stroke-width="2"/><path d="M1111.98444,609.37999c-11.56002,-5.89013 -23.63232,-3.39236 -35.69835,-7.02844c-16.13908,-4.86348 -26.56533,-16.42484 -36.76791,-29.12739" id="Path 1 1 1" stroke="#00fe03" stroke-width="2"/><path d="M1118.97485,605.00574c2.7702,13.40955 5.62163,28.1428 11.412,40.61816c2.93766,6.32919 6.92527,11.97562 10.46636,17.94939c3.97142,6.69973 7.26841,13.00686 13.17356,18.25242c4.87636,4.33168 11.32757,6.5777 17.18773,9.19569" id="Path 1 1 1" stroke="#00fe03" stroke-width="2"/><path d="M1144.32647,514.75445c7.06459,21.74256 14.09197,43.10864 23.3055,64.04517c4.2693,9.70142 8.24412,21.289 15.13208,29.54005c14.39664,17.24565 35.37932,29.12978 58.11528,27.82337" id="Path 1 1 1" stroke="#00fe03" stroke-width="2"/><path d="M1223.22531,369.25197c3.50565,17.552 7.6942,38.10985 16.9665,53.64588c15.23731,25.53062 38.9375,46.44137 59.14304,67.97165" id="Path 1 1 1" stroke="#00fe03" stroke-width="2"/><path d="M1211.95667,353.98705c-12.94732,-3.81854 -26.16021,-7.68467 -38.12343,-14.0608c-8.10652,-4.3206 -14.92015,-10.92239 -22.01032,-16.64622c-7.0599,-5.6994 -14.62866,-10.63467 -21.69784,-16.37418" id="Path 1 1 1" stroke="#00fe03" stroke-width="2"/><path d="M1198.11375,427.88139c-15.28325,-0.15491 -29.79635,4.54423 -44.99735,5.10062c-9.07017,0.33199 -15.98768,-1.92524 -24.61752,-4.2621c-9.31854,-2.52336 -18.73076,-3.81225 -27.31224,-8.52159c-10.09433,-5.53956 -18.6486,-13.9905 -27.58189,-21.16729" id="Path 1 1 1" stroke="#00fe03" stroke-width="2"/><path d="M1209.33439,449.47068c7.73626,23.80976 18.88514,45.53951 28.01129,68.72487c8.80048,22.35799 16.78135,45.94881 29.93309,66.26739c6.87979,10.62883 15.33698,20.04686 22.08312,30.81065" id="Path 1 1 1" stroke="#00fe03" stroke-width="2"/></g><g id="Group 1" fill="#00bf12"><path d="M1062.82042,175.17345c-14.39865,18.17252 -24.58027,38.60389 -33.28091,60.00217c-28.30158,62.54648 -56.80193,126.85541 -98.81125,181.61001c-32.45594,42.30281 -77.26089,77.62928 -125.82326,99.57595c-44.69865,20.20054 -94.6589,30.16567 -142.73129,38.6019c-46.20468,8.10846 -91.84842,8.9387 -138.62494,8.1872c38.79577,-37.84615 62.99198,-86.97884 88.32675,-134.19915c19.97932,-37.23854 41.11375,-73.73365 62.02645,-110.44522c20.30717,-35.64858 41.35671,-77.99166 75.89517,-102.52269c20.7055,-14.70614 46.65344,-19.40773 71.09036,-23.95993c64.25346,-11.9694 129.87038,-5.13546 194.62571,-2.01885" id="Path 1 1 1" stroke="#ffffff" stroke-width="1"/><path d="M833.21688,375.99325c12.99306,8.10395 22.92085,15.64532 33.13635,27.11005c3.80964,4.27551 9.07653,9.1046 11.71579,14.40314c3.7766,7.58186 3.48533,16.67222 4.8557,24.8576" id="Path 1 1 1" stroke="#00fe03" stroke-width="2"/><path d="M529.13718,561.08657c11.25642,-7.00545 22.58637,-12.82186 35.25312,-16.82928c15.56039,-4.92289 30.66123,-7.24925 43.61843,-18.0074c10.33772,-8.58324 21.57356,-17.68997 30.71907,-27.46862c11.62582,-12.43069 21.25209,-26.79305 32.53772,-39.55982c10.76133,-12.17365 24.03712,-22.64 36.01027,-33.59436c8.3438,-7.63383 16.12049,-17.22602 26.29574,-22.58552c9.67497,-5.096 19.25212,-3.35742 29.20963,-6.01453c8.40082,-2.24171 16.62617,-5.24186 25.17561,-6.82491c12.22763,-2.26411 25.15751,-2.45885 36.46767,-8.17188c12.59267,-6.36086 27.63319,-13.50412 38.07437,-23.16081c23.22779,-21.48258 39.40481,-49.65858 64.20129,-69.83043c10.41633,-8.47365 22.57624,-13.53767 33.44991,-21.19574c14.54164,-10.24134 26.68338,-22.92475 39.57223,-34.95019c19.79444,-18.46843 42.53391,-32.43636 57.50979,-55.65553" id="Path 1 1 1" stroke="#00fe03" stroke-width="2"/><path d="M911.14939,310.88931c5.89013,11.56002 17.12497,16.63521 24.74936,26.66909c10.1981,13.42095 11.83752,28.90268 12.62521,45.17619" id="Path 1 1 1" stroke="#00fe03" stroke-width="2"/><path d="M902.9229,310.31928c5.64079,-12.47684 11.99393,-26.07231 14.64226,-39.56859c1.34359,-6.84714 1.43643,-13.75905 2.08292,-20.67334c0.72506,-7.75454 1.76498,-14.79503 0.07087,-22.50974c-1.39896,-6.37066 -5.29792,-11.97965 -8.50007,-17.54216" id="Path 1 1 1" stroke="#00fe03" stroke-width="2"/><path d="M829.36464,368.43281c7.06459,-21.74256 13.93798,-43.15868 18.79026,-65.51226c2.24841,-10.35805 5.84373,-22.06894 5.1211,-32.79281c-1.51039,-22.41416 -11.50041,-44.36193 -30.66208,-56.66888" id="Path 1 1 1" stroke="#00fe03" stroke-width="2"/><path d="M680.00992,439.77121c7.48067,-16.26043 16.17567,-35.35406 17.80608,-53.37309c2.67927,-29.61097 -4.20355,-60.45875 -7.89499,-89.75363" id="Path 1 1 1" stroke="#00fe03" stroke-width="2"/><path d="M680.15395,458.74433c8.23012,10.69951 16.64712,21.59361 22.57777,33.78381c4.01873,8.26033 5.65064,17.60624 8.02232,26.40442c2.36156,8.76061 5.58394,17.20214 7.92942,26.00066" id="Path 1 1 1" stroke="#00fe03" stroke-width="2"/><path d="M734.78711,407.09921c12.27335,9.10859 26.77678,13.8375 39.40169,22.32229c7.53306,5.06273 11.80268,10.95487 17.41079,17.91793c6.05567,7.51874 12.91272,14.09384 17.0872,22.94784c4.91041,10.41489 6.86362,22.27992 9.87239,33.33693" id="Path 1 1 1" stroke="#00fe03" stroke-width="2"/><path d="M738.39929,383.03779c7.73626,-23.80976 11.48905,-47.94265 17.73385,-72.06421c6.02196,-23.26079 13.43163,-47.0372 14.73462,-71.20567c0.6816,-12.64275 -0.62463,-25.2331 0.24443,-37.90648" id="Path 1 1 1" stroke="#00fe03" stroke-width="2"/></g><g id="Group 1" fill="#00bf12"><path d="M1295.94237,489.48626c-21.73252,-8.07831 -44.3102,-11.44797 -67.34982,-13.11034c-68.23091,-7.58848 -138.19943,-14.82137 -203.25574,-37.8545c-50.2618,-17.79515 -97.70476,-49.49071 -133.58388,-88.89437c-33.0245,-36.26863 -57.94047,-80.70426 -80.81898,-123.81688c-21.98963,-41.43761 -36.88393,-84.59083 -50.62395,-129.31017c47.98238,25.20187 102.18738,33.03099 154.92544,42.53391c41.58991,7.49412 82.82972,16.31655 124.20687,24.86121c40.17908,8.29725 86.9544,15.23182 120.95777,40.49934c20.38472,15.14765 32.87455,38.37274 44.75538,60.20692c31.23899,57.40992 45.01627,121.92713 62.06269,184.47619" id="Path 1" stroke="#ffffff" stroke-width="1"/><path d="M1034,333.17705c-3.69224,14.86139 -7.79666,26.6337 -15.54349,39.892c-2.88901,4.94438 -5.85419,11.44577 -10.07782,15.5932c-6.04374,5.93469 -14.7792,8.46675 -22.14049,12.29947" id="Path 1" stroke="#00fe03" stroke-width="2"/><path d="M764,101.17705c10.141,8.54069 19.17389,17.51874 26.89941,28.32718c9.49037,13.27755 16.36929,26.92042 30.60489,35.919c11.35768,7.17939 23.49075,15.05117 35.61693,20.7273c15.41486,7.21552 32.04896,11.93243 47.67833,18.72056c14.90326,6.47276 28.9598,15.86451 43.07792,23.86657c9.83858,5.57644 21.36443,10.00837 29.60594,18.02942c7.83631,7.6267 9.14233,17.27235 14.74643,25.92141c4.72799,7.29692 10.12308,14.1926 14.27057,21.83441c5.93185,10.92952 10.1126,23.16639 19.04105,32.15756c9.94089,10.01073 21.3823,22.10772 33.79286,29.05379c27.60893,15.45246 59.40487,22.13086 86.25197,39.48027c11.27774,7.28802 19.85153,17.28791 30.49494,25.26291c14.2337,10.66518 30.04835,18.29326 45.4681,26.83523c23.68134,13.11858 43.99251,30.42876 70.70306,37.49655" id="Path 1" stroke="#00fe03" stroke-width="2"/><path d="M1120,387.17705c-9.17409,9.17409 -10.52912,21.42738 -17.71584,31.77924c-9.6127,13.84627 -23.83009,20.18957 -39.0637,25.9675" id="Path 1" stroke="#00fe03" stroke-width="2"/><path d="M1118,379.17705c13.60928,1.50916 28.50257,3.35012 42.15667,1.69825c6.92721,-0.83805 13.52952,-2.88566 20.30517,-4.40744c7.59906,-1.70671 14.61632,-2.89332 21.42994,-6.8885c5.62655,-3.29913 9.75618,-8.74054 14.05692,-13.50487" id="Path 1" stroke="#00fe03" stroke-width="2"/><path d="M1040,327.17705c22.86148,0 45.35342,-0.08096 68.11237,-2.37381c10.54589,-1.06244 22.79462,-1.26196 32.77032,-5.26308c20.8504,-8.36282 38.63688,-24.64614 44.4202,-46.67302" id="Path 1" stroke="#00fe03" stroke-width="2"/><path d="M926,207.17705c17.77625,2.08979 38.62227,4.45897 56.2632,0.44139c28.98965,-6.60215 56.20072,-22.68059 82.92108,-35.24398" id="Path 1" stroke="#00fe03" stroke-width="2"/><path d="M908,213.17705c-7.63259,11.13364 -15.3925,22.50515 -25.1534,31.91251c-6.61418,6.37462 -14.99839,10.8147 -22.63306,15.78909c-7.60208,4.95315 -14.63468,10.62639 -22.27777,15.57597" id="Path 1" stroke="#00fe03" stroke-width="2"/><path d="M974,249.17705c-4.87011,14.48736 -4.88576,29.74225 -9.05397,44.37121c-2.48709,8.72884 -6.77147,14.61026 -11.66073,22.09559c-5.27945,8.0827 -9.41379,16.63596 -16.54446,23.34217c-8.38775,7.88846 -19.06849,13.41257 -28.65457,19.69088" id="Path 1" stroke="#00fe03" stroke-width="2"/><path d="M998,245.17705c25.03506,0 49.14648,-3.88836 74.0172,-5.40317c23.98321,-1.46075 48.88563,-1.76105 72.27387,-7.99031c12.23459,-3.25858 23.80508,-8.39152 36.12673,-11.48128" id="Path 1" stroke="#00fe03" stroke-width="2"/></g></g></g></g></svg>