<?xml version="1.0" encoding="UTF-8"?>
<svg xmlns="http://www.w3.org/2000/svg" xmlns:xlink="http://www.w3.org/1999/xlink" width="48px" height="48px" viewBox="0 0 48 48" version="1.1">
<g id="surface1">
<path style=" stroke:none;fill-rule:nonzero;fill:rgb(100%,100%,100%);fill-opacity:1;" d="M 4.152344 5.378906 L 37.585938 5.378906 L 37.585938 38.128906 L 4.152344 38.128906 Z M 4.152344 5.378906 "/>
<path style="fill-rule:nonzero;fill:rgb(0%,100%,3.529412%);fill-opacity:1;stroke-width:1;stroke-linecap:round;stroke-linejoin:round;stroke:rgb(0%,65.098039%,9.411765%);stroke-opacity:1;stroke-miterlimit:10;" d="M 613.996036 835.501465 L 957.992618 486.487793 L 1313.030459 136.472168 L 1309.022891 835.501465 Z M 613.996036 835.501465 " transform="matrix(0.0477612,0,0,0.0467836,-24.981434,-1.052632)"/>
<path style="fill-rule:nonzero;fill:rgb(16.470588%,96.862745%,42.352941%);fill-opacity:1;stroke-width:1;stroke-linecap:round;stroke-linejoin:round;stroke:rgb(0%,65.098039%,9.411765%);stroke-opacity:1;stroke-miterlimit:10;" d="M 613.996036 833.414062 L 613.996036 136.472168 L 1311.967227 137.474121 L 965.026309 479.557617 Z M 613.996036 833.414062 " transform="matrix(0.0477612,0,0,0.0467836,-24.981434,-1.052632)"/>
<path style="fill-rule:nonzero;fill:rgb(0%,74.901961%,7.058824%);fill-opacity:1;stroke-width:1;stroke-linecap:round;stroke-linejoin:round;stroke:rgb(100%,100%,100%);stroke-opacity:1;stroke-miterlimit:10;" d="M 691.857364 299.790527 C 704.69794 319.078125 720.973575 335.025879 738.63959 349.97168 C 789.347598 396.228516 841.691348 443.15332 880.785586 500.01416 C 911.046817 544.016602 930.75751 597.537598 936.646182 650.474121 C 942.044131 699.23584 936.073672 749.834473 929.285342 798.178711 C 922.660586 844.602539 909.329288 888.270996 894.198672 932.523926 C 870.153262 883.929199 830.977237 845.771484 793.845889 807.029297 C 764.647891 776.553223 736.431338 745.158691 707.969424 713.931152 C 680.325381 683.62207 646.629092 650.474121 633.95209 610.062012 C 626.345889 585.848145 629.862735 559.713867 633.134219 535.08252 C 641.558291 470.289551 668.384463 409.921875 691.366641 349.303711 " transform="matrix(0.0477612,0,0,0.0467836,-24.981434,-1.052632)"/>
<path style="fill-rule:nonzero;fill:rgb(0%,74.901961%,7.058824%);fill-opacity:1;stroke-width:2;stroke-linecap:round;stroke-linejoin:round;stroke:rgb(0%,99.607843%,1.176471%);stroke-opacity:1;stroke-miterlimit:10;" d="M 811.92084 580.17041 C 823.616397 570.317871 833.839786 563.220703 847.907168 557.041992 C 853.141543 554.704102 859.357364 551.197266 865.246036 550.362305 C 873.588321 549.109863 882.175967 552.199219 890.354678 553.45166 " transform="matrix(0.0477612,0,0,0.0467836,-24.981434,-1.052632)"/>
<path style="fill-rule:nonzero;fill:rgb(0%,74.901961%,7.058824%);fill-opacity:1;stroke-width:2;stroke-linecap:round;stroke-linejoin:round;stroke:rgb(0%,99.607843%,1.176471%);stroke-opacity:1;stroke-miterlimit:10;" d="M 893.953311 926.595703 C 890.763614 913.737305 888.718936 901.129395 888.88251 887.853516 C 888.964297 871.488281 891.417911 856.458984 885.20209 840.761719 C 880.213077 828.320801 875.060489 814.794434 868.599307 803.10498 C 860.338809 788.15918 849.624698 774.632812 841.037051 759.9375 C 832.776553 745.910156 826.887881 730.045898 820.181338 715.26709 C 815.519473 704.99707 808.81293 694.643555 806.85004 683.288086 C 804.968936 672.51709 809.549014 664.000488 810.121524 653.646973 C 810.612247 644.963379 810.285098 636.196289 811.430118 627.596191 C 813.06586 615.322266 816.828067 602.964844 814.946963 590.44043 C 812.738711 576.496582 810.612247 559.964355 804.641788 547.022461 C 791.392276 518.299805 769.636905 494.25293 758.104922 464.361328 C 753.279483 451.836914 752.21625 438.728027 748.290469 426.036621 C 742.974307 409.003418 734.713809 393.556641 727.271182 377.608887 C 715.820987 353.061035 709.523379 327.09375 692.102725 305.71875 " transform="matrix(0.0477612,0,0,0.0467836,-24.981434,-1.052632)"/>
<path style="fill-rule:nonzero;fill:rgb(0%,74.901961%,7.058824%);fill-opacity:1;stroke-width:2;stroke-linecap:round;stroke-linejoin:round;stroke:rgb(0%,99.607843%,1.176471%);stroke-opacity:1;stroke-miterlimit:10;" d="M 774.053409 485.90332 C 786.893985 483.899414 795.154483 474.79834 807.095401 470.623535 C 822.9621 465.112793 838.174502 468.285645 853.959415 472.627441 " transform="matrix(0.0477612,0,0,0.0467836,-24.981434,-1.052632)"/>
<path style="fill-rule:nonzero;fill:rgb(0%,74.901961%,7.058824%);fill-opacity:1;stroke-width:2;stroke-linecap:round;stroke-linejoin:round;stroke:rgb(0%,99.607843%,1.176471%);stroke-opacity:1;stroke-miterlimit:10;" d="M 770.945499 493.584961 C 760.885684 484.400391 749.844424 474.130371 737.903506 467.450684 C 731.769473 464.027344 725.226504 461.856445 718.84711 459.101074 C 711.731631 456.011719 705.352237 452.838867 697.500674 452.087402 C 690.957706 451.419434 684.414737 453.42334 678.117129 454.675781 " transform="matrix(0.0477612,0,0,0.0467836,-24.981434,-1.052632)"/>
<path style="fill-rule:nonzero;fill:rgb(0%,74.901961%,7.058824%);fill-opacity:1;stroke-width:2;stroke-linecap:round;stroke-linejoin:round;stroke:rgb(0%,99.607843%,1.176471%);stroke-opacity:1;stroke-miterlimit:10;" d="M 803.496768 581.506348 C 785.012881 568.063477 766.774356 554.95459 746.981875 543.432129 C 737.821719 538.088379 727.843692 530.991211 717.374942 528.402832 C 695.619571 522.89209 671.655948 525.647461 654.071719 540.008789 " transform="matrix(0.0477612,0,0,0.0467836,-24.981434,-1.052632)"/>
<path style="fill-rule:nonzero;fill:rgb(0%,74.901961%,7.058824%);fill-opacity:1;stroke-width:2;stroke-linecap:round;stroke-linejoin:round;stroke:rgb(0%,99.607843%,1.176471%);stroke-opacity:1;stroke-miterlimit:10;" d="M 825.170352 745.576172 C 812.084415 733.469238 796.544864 719.274902 779.942081 712.177734 C 752.625186 700.488281 721.137149 697.482422 692.184512 691.97168 " transform="matrix(0.0477612,0,0,0.0467836,-24.981434,-1.052632)"/>
<path style="fill-rule:nonzero;fill:rgb(0%,74.901961%,7.058824%);fill-opacity:1;stroke-width:2;stroke-linecap:round;stroke-linejoin:round;stroke:rgb(0%,99.607843%,1.176471%);stroke-opacity:1;stroke-miterlimit:10;" d="M 843.32709 751.337402 C 856.004092 746.828613 869.008243 742.152832 882.421329 740.315918 C 891.499698 738.97998 900.905215 740.315918 909.983584 740.816895 C 919.061954 741.317871 928.058536 740.816895 937.136905 741.317871 " transform="matrix(0.0477612,0,0,0.0467836,-24.981434,-1.052632)"/>
<path style="fill-rule:nonzero;fill:rgb(0%,74.901961%,7.058824%);fill-opacity:1;stroke-width:2;stroke-linecap:round;stroke-linejoin:round;stroke:rgb(0%,99.607843%,1.176471%);stroke-opacity:1;stroke-miterlimit:10;" d="M 811.021182 683.371582 C 823.53461 674.520996 832.531192 662.24707 844.47211 652.812012 C 851.587588 647.217773 858.539493 644.963379 866.881778 641.790527 C 875.87836 638.367188 884.302432 633.858398 893.953311 632.689453 C 905.403506 631.186523 917.262637 633.023438 928.712832 633.524414 " transform="matrix(0.0477612,0,0,0.0467836,-24.981434,-1.052632)"/>
<path style="fill-rule:nonzero;fill:rgb(0%,74.901961%,7.058824%);fill-opacity:1;stroke-width:2;stroke-linecap:round;stroke-linejoin:round;stroke:rgb(0%,99.607843%,1.176471%);stroke-opacity:1;stroke-miterlimit:10;" d="M 789.265811 672.51709 C 769.064395 657.821777 747.227237 646.800293 726.20795 633.357422 C 706.006534 620.499023 685.641543 606.054199 663.068301 597.370605 C 651.290957 592.861816 638.859317 590.189941 627.081973 585.430664 " transform="matrix(0.0477612,0,0,0.0467836,-24.981434,-1.052632)"/>
<path style="fill-rule:nonzero;fill:rgb(0%,74.901961%,7.058824%);fill-opacity:1;stroke-width:1;stroke-linecap:round;stroke-linejoin:round;stroke:rgb(100%,100%,100%);stroke-opacity:1;stroke-miterlimit:10;" d="M 695.701358 691.053223 C 718.029239 684.791016 738.312442 674.270508 757.859561 662.080078 C 817.564151 628.097168 878.41376 592.861816 944.579532 573.240234 C 995.696475 558.127441 1052.70209 555.873047 1104.882266 566.644043 C 1152.973086 576.580078 1199.182803 597.871582 1243.102481 619.330078 C 1285.222842 639.870117 1322.599551 666.087891 1360.058047 694.142578 C 1306.405704 701.991211 1257.905948 727.541016 1209.73334 750.836426 C 1171.620547 769.205566 1133.098819 786.322266 1094.57709 803.689453 C 1057.200381 820.63916 1015.325381 842.515137 972.959659 842.01416 C 947.523868 841.763672 923.805606 830.324707 901.314151 819.637207 C 842.345645 791.58252 793.273379 747.496582 742.728946 706.833984 " transform="matrix(0.0477612,0,0,0.0467836,-24.981434,-1.052632)"/>
<path style="fill-rule:nonzero;fill:rgb(0%,74.901961%,7.058824%);fill-opacity:1;stroke-width:2;stroke-linecap:round;stroke-linejoin:round;stroke:rgb(0%,99.607843%,1.176471%);stroke-opacity:1;stroke-miterlimit:10;" d="M 999.458682 663.583008 C 993.733584 649.388672 990.134952 637.44873 988.662784 622.168945 C 988.090274 616.491211 986.618106 609.477539 987.599551 603.632812 C 988.989932 595.283203 994.551456 588.102539 998.313663 580.671387 " transform="matrix(0.0477612,0,0,0.0467836,-24.981434,-1.052632)"/>
<path style="fill-rule:nonzero;fill:rgb(0%,74.901961%,7.058824%);fill-opacity:1;stroke-width:2;stroke-linecap:round;stroke-linejoin:round;stroke:rgb(0%,99.607843%,1.176471%);stroke-opacity:1;stroke-miterlimit:10;" d="M 1354.33295 692.556152 C 1341.083438 691.637695 1328.488223 689.633789 1315.893008 685.458984 C 1300.435245 680.282227 1286.858584 673.268555 1270.01044 674.354004 C 1256.597354 675.272461 1242.121036 676.023926 1229.035098 678.528809 C 1212.268741 681.785156 1196.074893 687.713379 1179.47211 691.387207 C 1163.605411 694.977539 1146.675479 695.645508 1130.563418 697.398926 C 1119.358584 698.734863 1107.417666 701.907715 1096.049258 700.237793 C 1085.171573 698.651367 1078.46503 691.637695 1068.814151 687.963867 C 1060.717227 684.791016 1052.293155 682.369629 1044.441592 678.695801 C 1033.236758 673.352051 1022.686221 665.837402 1010.172793 663.833496 C 996.268985 661.579102 979.829776 658.489746 965.762393 660.159668 C 934.356143 663.916992 904.667422 677.192871 872.77045 678.946289 C 859.357364 679.697754 846.516788 676.608398 833.267276 676.441406 C 815.437686 676.190918 798.180606 679.280273 780.678165 681.451172 C 753.770206 684.791016 727.189395 682.703613 701.426456 692.723145 " transform="matrix(0.0477612,0,0,0.0467836,-24.981434,-1.052632)"/>
<path style="fill-rule:nonzero;fill:rgb(0%,74.901961%,7.058824%);fill-opacity:1;stroke-width:2;stroke-linecap:round;stroke-linejoin:round;stroke:rgb(0%,99.607843%,1.176471%);stroke-opacity:1;stroke-miterlimit:10;" d="M 898.206241 670.429688 C 900.169131 657.571289 894.116885 646.883789 893.871524 634.275879 C 893.462588 617.409668 901.232364 603.966797 910.147159 590.356934 " transform="matrix(0.0477612,0,0,0.0467836,-24.981434,-1.052632)"/>
<path style="fill-rule:nonzero;fill:rgb(0%,74.901961%,7.058824%);fill-opacity:1;stroke-width:2;stroke-linecap:round;stroke-linejoin:round;stroke:rgb(0%,99.607843%,1.176471%);stroke-opacity:1;stroke-miterlimit:10;" d="M 904.503848 675.689941 C 892.56293 682.536621 879.476993 689.800781 869.417178 699.152344 C 864.26459 703.911621 860.175235 709.422363 855.595157 714.599121 C 850.442569 720.443848 845.453555 725.537109 842.263858 732.80127 C 839.64667 738.729492 839.483096 745.576172 838.828799 752.005371 " transform="matrix(0.0477612,0,0,0.0467836,-24.981434,-1.052632)"/>
<path style="fill-rule:nonzero;fill:rgb(0%,74.901961%,7.058824%);fill-opacity:1;stroke-width:2;stroke-linecap:round;stroke-linejoin:round;stroke:rgb(0%,99.607843%,1.176471%);stroke-opacity:1;stroke-miterlimit:10;" d="M 998.150088 671.932617 C 979.666202 685.375488 961.509463 698.651367 944.497745 713.931152 C 936.564395 720.944824 926.749942 728.29248 921.024844 737.393555 C 909.083926 756.430664 904.258487 780.060059 912.518985 801.268066 " transform="matrix(0.0477612,0,0,0.0467836,-24.981434,-1.052632)"/>
<path style="fill-rule:nonzero;fill:rgb(0%,74.901961%,7.058824%);fill-opacity:1;stroke-width:2;stroke-linecap:round;stroke-linejoin:round;stroke:rgb(0%,99.607843%,1.176471%);stroke-opacity:1;stroke-miterlimit:10;" d="M 1160.906436 701.991211 C 1145.285098 710.758301 1127.046573 721.111816 1115.187442 734.72168 C 1095.558536 757.098633 1083.045108 786.071777 1068.814151 811.955566 " transform="matrix(0.0477612,0,0,0.0467836,-24.981434,-1.052632)"/>
<path style="fill-rule:nonzero;fill:rgb(0%,74.901961%,7.058824%);fill-opacity:1;stroke-width:2;stroke-linecap:round;stroke-linejoin:round;stroke:rgb(0%,99.607843%,1.176471%);stroke-opacity:1;stroke-miterlimit:10;" d="M 1171.947696 686.544434 C 1171.620547 673.101562 1171.211612 659.324707 1173.583438 645.965332 C 1175.137393 636.947754 1179.308536 628.431152 1182.58002 619.914551 C 1185.851504 611.397949 1188.141543 602.714355 1191.494815 594.197754 " transform="matrix(0.0477612,0,0,0.0467836,-24.981434,-1.052632)"/>
<path style="fill-rule:nonzero;fill:rgb(0%,74.901961%,7.058824%);fill-opacity:1;stroke-width:2;stroke-linecap:round;stroke-linejoin:round;stroke:rgb(0%,99.607843%,1.176471%);stroke-opacity:1;stroke-miterlimit:10;" d="M 1097.439639 696.22998 C 1092.859561 681.70166 1083.862979 669.344238 1078.628604 655.066406 C 1075.520694 646.466309 1075.520694 639.202148 1075.111758 630.268066 C 1074.621036 620.666016 1072.903506 611.314453 1074.78461 601.712402 C 1076.911075 590.356934 1082.309024 579.669434 1086.398379 568.898438 " transform="matrix(0.0477612,0,0,0.0467836,-24.981434,-1.052632)"/>
<path style="fill-rule:nonzero;fill:rgb(0%,74.901961%,7.058824%);fill-opacity:1;stroke-width:2;stroke-linecap:round;stroke-linejoin:round;stroke:rgb(0%,99.607843%,1.176471%);stroke-opacity:1;stroke-miterlimit:10;" d="M 1080.346133 713.597168 C 1060.06293 728.29248 1042.887637 745.659668 1023.667666 761.44043 C 1005.101993 776.720215 985.145938 791.666016 969.851749 810.452637 C 961.918399 820.22168 955.539004 831.159668 947.360293 840.928711 " transform="matrix(0.0477612,0,0,0.0467836,-24.981434,-1.052632)"/>
<path style="fill-rule:nonzero;fill:rgb(0%,74.901961%,7.058824%);fill-opacity:1;stroke-width:1;stroke-linecap:round;stroke-linejoin:round;stroke:rgb(100%,100%,100%);stroke-opacity:1;stroke-miterlimit:10;" d="M 1069.059512 808.365234 C 1070.040957 785.15332 1066.27875 762.609375 1060.717227 740.232422 C 1046.813418 673.018066 1032.091739 604.217285 1033.891055 535.249512 C 1035.281436 481.895508 1050.7392 427.038574 1077.156436 380.698242 C 1101.447207 338.115234 1136.043155 300.625488 1169.984805 265.557129 C 1202.536075 231.824707 1239.013125 204.354492 1277.289493 177.46875 C 1268.129336 230.90625 1277.453067 284.844727 1284.73212 337.948242 C 1290.457217 379.863281 1294.791934 421.77832 1299.453799 463.776855 C 1303.95209 504.522949 1311.803653 551.197266 1298.30878 591.358887 C 1290.211856 615.405762 1271.973331 634.442871 1254.879825 652.478027 C 1209.896915 699.903809 1152.809512 732.968262 1098.584659 768.537598 " transform="matrix(0.0477612,0,0,0.0467836,-24.981434,-1.052632)"/>
<path style="fill-rule:nonzero;fill:rgb(0%,74.901961%,7.058824%);fill-opacity:1;stroke-width:2;stroke-linecap:round;stroke-linejoin:round;stroke:rgb(0%,99.607843%,1.176471%);stroke-opacity:1;stroke-miterlimit:10;" d="M 1136.779239 510.868652 C 1121.485049 511.954102 1109.053409 511.703613 1094.004581 508.447266 C 1088.443057 507.194824 1081.327579 506.443359 1076.093204 503.687988 C 1068.56879 499.763672 1063.497989 492.249023 1057.52753 486.404297 " transform="matrix(0.0477612,0,0,0.0467836,-24.981434,-1.052632)"/>
<path style="fill-rule:nonzero;fill:rgb(0%,74.901961%,7.058824%);fill-opacity:1;stroke-width:2;stroke-linecap:round;stroke-linejoin:round;stroke:rgb(0%,99.607843%,1.176471%);stroke-opacity:1;stroke-miterlimit:10;" d="M 1273.936221 182.39502 C 1268.947207 194.668945 1263.22211 206.10791 1255.370547 216.79541 C 1245.637881 229.904297 1234.841983 240.675293 1230.67084 256.957031 C 1227.317569 269.982422 1223.555362 283.92627 1221.91962 297.285645 C 1219.874942 314.151855 1220.529239 331.435547 1218.893497 348.385254 C 1217.339541 364.583496 1212.759463 380.781738 1209.487979 396.729492 C 1207.19794 407.834473 1206.543643 420.108398 1201.472842 430.461914 C 1196.647403 440.230957 1187.896182 444.489258 1181.353213 452.504883 C 1175.873477 459.268066 1171.048038 466.532227 1164.995791 472.794434 C 1156.489932 481.812012 1146.102969 489.577148 1140.296084 500.849121 C 1133.91669 513.373535 1125.901553 527.985352 1123.120791 541.929199 C 1116.986758 572.989746 1120.421817 605.302734 1112.243106 636.196289 C 1108.808047 649.138184 1101.93793 660.410156 1097.603213 673.018066 C 1091.878116 689.800781 1089.50629 707.251465 1086.153018 724.535156 C 1081.00043 751.086914 1070.858829 775.801758 1072.330997 803.355469 " transform="matrix(0.0477612,0,0,0.0467836,-24.981434,-1.052632)"/>
<path style="fill-rule:nonzero;fill:rgb(0%,74.901961%,7.058824%);fill-opacity:1;stroke-width:2;stroke-linecap:round;stroke-linejoin:round;stroke:rgb(0%,99.607843%,1.176471%);stroke-opacity:1;stroke-miterlimit:10;" d="M 1111.997745 609.394043 C 1100.383975 603.46582 1088.36127 605.970703 1076.256778 602.380371 C 1060.144717 597.454102 1049.757754 585.931641 1039.534366 573.240234 " transform="matrix(0.0477612,0,0,0.0467836,-24.981434,-1.052632)"/>
<path style="fill-rule:nonzero;fill:rgb(0%,74.901961%,7.058824%);fill-opacity:1;stroke-width:2;stroke-linecap:round;stroke-linejoin:round;stroke:rgb(0%,99.607843%,1.176471%);stroke-opacity:1;stroke-miterlimit:10;" d="M 1118.949649 604.96875 C 1121.730411 618.411621 1124.592959 633.106934 1130.399844 645.631348 C 1133.34418 651.977051 1137.351749 657.571289 1140.868594 663.583008 C 1144.794375 670.262695 1148.147647 676.608398 1154.036319 681.785156 C 1158.943545 686.126953 1165.32294 688.381348 1171.211612 691.053223 " transform="matrix(0.0477612,0,0,0.0467836,-24.981434,-1.052632)"/>
<path style="fill-rule:nonzero;fill:rgb(0%,74.901961%,7.058824%);fill-opacity:1;stroke-width:2;stroke-linecap:round;stroke-linejoin:round;stroke:rgb(0%,99.607843%,1.176471%);stroke-opacity:1;stroke-miterlimit:10;" d="M 1144.303653 514.792969 C 1151.419131 536.501953 1158.452823 557.876953 1167.612979 578.834473 C 1171.865909 588.52002 1175.873477 600.125977 1182.743594 608.308594 C 1197.138125 625.592285 1218.157413 637.44873 1240.894229 636.196289 " transform="matrix(0.0477612,0,0,0.0467836,-24.981434,-1.052632)"/>
<path style="fill-rule:nonzero;fill:rgb(0%,74.901961%,7.058824%);fill-opacity:1;stroke-width:2;stroke-linecap:round;stroke-linejoin:round;stroke:rgb(0%,99.607843%,1.176471%);stroke-opacity:1;stroke-miterlimit:10;" d="M 1223.228213 369.259277 C 1226.745059 386.793457 1230.916202 407.333496 1240.158145 422.86377 C 1255.452334 448.413574 1279.088809 469.371094 1299.372012 490.82959 " transform="matrix(0.0477612,0,0,0.0467836,-24.981434,-1.052632)"/>
<path style="fill-rule:nonzero;fill:rgb(0%,74.901961%,7.058824%);fill-opacity:1;stroke-width:2;stroke-linecap:round;stroke-linejoin:round;stroke:rgb(0%,99.607843%,1.176471%);stroke-opacity:1;stroke-miterlimit:10;" d="M 1211.941592 353.979492 C 1199.019229 350.138672 1185.769717 346.297852 1173.828799 339.952148 C 1165.731875 335.610352 1158.943545 329.01416 1151.828067 323.25293 C 1144.794375 317.575195 1137.188174 312.648926 1130.154483 306.887695 " transform="matrix(0.0477612,0,0,0.0467836,-24.981434,-1.052632)"/>
<path style="fill-rule:nonzero;fill:rgb(0%,74.901961%,7.058824%);fill-opacity:1;stroke-width:2;stroke-linecap:round;stroke-linejoin:round;stroke:rgb(0%,99.607843%,1.176471%);stroke-opacity:1;stroke-miterlimit:10;" d="M 1198.119571 427.873535 C 1182.825381 427.706543 1168.349063 432.46582 1153.136661 432.966797 C 1144.058291 433.300781 1137.106387 431.046387 1128.518741 428.708496 C 1119.19501 426.203613 1109.789493 424.867676 1101.201846 420.191895 C 1091.060245 414.681152 1082.554385 406.248047 1073.63959 399.067383 " transform="matrix(0.0477612,0,0,0.0467836,-24.981434,-1.052632)"/>
<path style="fill-rule:nonzero;fill:rgb(0%,74.901961%,7.058824%);fill-opacity:1;stroke-width:2;stroke-linecap:round;stroke-linejoin:round;stroke:rgb(0%,99.607843%,1.176471%);stroke-opacity:1;stroke-miterlimit:10;" d="M 1209.324405 449.499023 C 1217.09418 473.29541 1228.217227 495.004395 1237.377383 518.216309 C 1246.128604 540.593262 1254.143741 564.13916 1267.311465 584.428711 C 1274.181582 595.116211 1282.605655 604.55127 1289.393985 615.23877 " transform="matrix(0.0477612,0,0,0.0467836,-24.981434,-1.052632)"/>
<path style="fill-rule:nonzero;fill:rgb(0%,74.901961%,7.058824%);fill-opacity:1;stroke-width:1;stroke-linecap:round;stroke-linejoin:round;stroke:rgb(100%,100%,100%);stroke-opacity:1;stroke-miterlimit:10;" d="M 1062.843692 175.214355 C 1048.449161 193.333008 1038.225772 213.789551 1029.556338 235.164551 C 1001.257999 297.703125 972.714297 361.995117 930.75751 416.768555 C 898.288028 459.101074 853.468692 494.419922 804.887149 516.379395 C 760.231387 536.585449 710.259463 546.521484 662.168643 554.95459 C 615.958926 563.053711 570.321719 563.888672 523.539493 563.137207 C 562.306582 525.313477 586.515567 476.134277 611.869571 428.958984 C 631.825625 391.719727 653.008487 355.231934 673.8642 318.493652 C 694.22919 282.84082 715.248477 240.508301 749.762637 215.960449 C 770.536563 201.265137 796.463077 196.589355 820.917422 191.99707 C 885.120303 180.057129 950.795352 186.903809 1015.488956 189.993164 " transform="matrix(0.0477612,0,0,0.0467836,-24.981434,-1.052632)"/>
<path style="fill-rule:nonzero;fill:rgb(0%,74.901961%,7.058824%);fill-opacity:1;stroke-width:2;stroke-linecap:round;stroke-linejoin:round;stroke:rgb(0%,99.607843%,1.176471%);stroke-opacity:1;stroke-miterlimit:10;" d="M 833.185489 376.022461 C 846.189639 384.121582 856.167666 391.63623 866.391055 403.075195 C 870.153262 407.416992 875.469424 412.17627 878.086612 417.52002 C 881.848819 425.118164 881.52167 434.219238 882.912051 442.401855 " transform="matrix(0.0477612,0,0,0.0467836,-24.981434,-1.052632)"/>
<path style="fill-rule:nonzero;fill:rgb(0%,74.901961%,7.058824%);fill-opacity:1;stroke-width:2;stroke-linecap:round;stroke-linejoin:round;stroke:rgb(0%,99.607843%,1.176471%);stroke-opacity:1;stroke-miterlimit:10;" d="M 529.101016 561.049805 C 540.387637 554.119629 551.756045 548.274902 564.35126 544.26709 C 579.972598 539.34082 595.021426 537.00293 608.025577 526.231934 C 618.330752 517.631836 629.617374 508.530762 638.695743 498.761719 C 650.391299 486.320801 659.960391 471.959473 671.247012 459.18457 C 682.042911 447.077637 695.292422 436.557129 707.315127 425.619141 C 715.657413 418.020996 723.427188 408.418945 733.56879 403.075195 C 743.219668 397.981934 752.78876 399.651855 762.766788 397.063477 C 771.19086 394.809082 779.369571 391.803223 787.957217 390.216797 C 800.225284 387.962402 813.147647 387.711914 824.434268 382.03418 C 837.029483 375.688477 852.078311 368.507812 862.465274 358.905762 C 885.692813 337.36377 901.886661 309.225586 926.668155 289.019531 C 937.136905 280.586426 949.241397 275.493164 960.119082 267.811523 C 974.677188 257.625 986.863467 244.933594 999.704043 232.910156 C 1019.496524 214.45752 1042.23334 200.430176 1057.200381 177.218262 " transform="matrix(0.0477612,0,0,0.0467836,-24.981434,-1.052632)"/>
<path style="fill-rule:nonzero;fill:rgb(0%,74.901961%,7.058824%);fill-opacity:1;stroke-width:2;stroke-linecap:round;stroke-linejoin:round;stroke:rgb(0%,99.607843%,1.176471%);stroke-opacity:1;stroke-miterlimit:10;" d="M 911.128604 310.895508 C 917.017276 322.417969 928.303897 327.51123 935.910098 337.530762 C 946.133487 350.973633 947.769229 366.42041 948.505313 382.702148 " transform="matrix(0.0477612,0,0,0.0467836,-24.981434,-1.052632)"/>
<path style="fill-rule:nonzero;fill:rgb(0%,74.901961%,7.058824%);fill-opacity:1;stroke-width:2;stroke-linecap:round;stroke-linejoin:round;stroke:rgb(0%,99.607843%,1.176471%);stroke-opacity:1;stroke-miterlimit:10;" d="M 902.949893 310.311035 C 908.593204 297.870117 914.890811 284.260254 917.589786 270.733887 C 918.898379 263.887207 918.980166 256.957031 919.634463 250.110352 C 920.370547 242.345215 921.43378 235.248047 919.71625 227.566406 C 918.32587 221.220703 914.400088 215.626465 911.210391 210.032227 " transform="matrix(0.0477612,0,0,0.0467836,-24.981434,-1.052632)"/>
<path style="fill-rule:nonzero;fill:rgb(0%,74.901961%,7.058824%);fill-opacity:1;stroke-width:2;stroke-linecap:round;stroke-linejoin:round;stroke:rgb(0%,99.607843%,1.176471%);stroke-opacity:1;stroke-miterlimit:10;" d="M 829.341495 368.424316 C 836.456973 346.715332 843.32709 325.256836 848.15253 302.879883 C 850.442569 292.526367 853.959415 280.836914 853.305118 270.149414 C 851.751163 247.688965 841.773135 225.729492 822.634952 213.455566 " transform="matrix(0.0477612,0,0,0.0467836,-24.981434,-1.052632)"/>
<path style="fill-rule:nonzero;fill:rgb(0%,74.901961%,7.058824%);fill-opacity:1;stroke-width:2;stroke-linecap:round;stroke-linejoin:round;stroke:rgb(0%,99.607843%,1.176471%);stroke-opacity:1;stroke-miterlimit:10;" d="M 679.998233 439.72998 C 687.522647 423.531738 696.192081 404.411133 697.827823 386.375977 C 700.526797 356.818359 693.574893 325.924805 689.894473 296.617676 " transform="matrix(0.0477612,0,0,0.0467836,-24.981434,-1.052632)"/>
<path style="fill-rule:nonzero;fill:rgb(0%,74.901961%,7.058824%);fill-opacity:1;stroke-width:2;stroke-linecap:round;stroke-linejoin:round;stroke:rgb(0%,99.607843%,1.176471%);stroke-opacity:1;stroke-miterlimit:10;" d="M 680.161807 458.76709 C 688.422305 469.45459 696.76459 480.309082 702.735049 492.499512 C 706.742618 500.765625 708.37836 510.117188 710.750186 518.967773 C 713.122012 527.734863 716.311709 536.167969 718.683536 544.935059 " transform="matrix(0.0477612,0,0,0.0467836,-24.981434,-1.052632)"/>
<path style="fill-rule:nonzero;fill:rgb(0%,74.901961%,7.058824%);fill-opacity:1;stroke-width:2;stroke-linecap:round;stroke-linejoin:round;stroke:rgb(0%,99.607843%,1.176471%);stroke-opacity:1;stroke-miterlimit:10;" d="M 734.795596 407.083008 C 747.063663 416.184082 761.539981 420.943359 774.216983 429.459961 C 781.741397 434.469727 785.994327 440.397949 791.637637 447.328125 C 797.689883 454.842773 804.478213 461.438965 808.649356 470.289551 C 813.556582 480.726562 815.519473 492.583008 818.545596 503.604492 " transform="matrix(0.0477612,0,0,0.0467836,-24.981434,-1.052632)"/>
<path style="fill-rule:nonzero;fill:rgb(0%,74.901961%,7.058824%);fill-opacity:1;stroke-width:2;stroke-linecap:round;stroke-linejoin:round;stroke:rgb(0%,99.607843%,1.176471%);stroke-opacity:1;stroke-miterlimit:10;" d="M 738.394229 383.036133 C 746.164004 359.239746 749.926211 335.109375 756.142032 310.979004 C 762.194278 287.683594 769.555118 263.970703 770.863711 239.756836 C 771.518008 227.148926 770.209415 214.541016 771.109073 201.849609 " transform="matrix(0.0477612,0,0,0.0467836,-24.981434,-1.052632)"/>
<path style="fill-rule:nonzero;fill:rgb(0%,74.901961%,7.058824%);fill-opacity:1;stroke-width:1;stroke-linecap:round;stroke-linejoin:round;stroke:rgb(100%,100%,100%);stroke-opacity:1;stroke-miterlimit:10;" d="M 1295.936954 489.493652 C 1274.181582 481.394531 1251.60834 478.054688 1228.626163 476.384766 C 1160.333926 468.786621 1090.405948 461.522461 1025.303409 438.561035 C 975.086124 420.692871 927.6496 389.047852 891.745059 349.637695 C 858.703067 313.316895 833.839786 268.896973 810.939395 225.812988 C 788.938663 184.398926 774.053409 141.231445 760.313174 96.477539 C 808.322207 121.693359 862.465274 129.541992 915.217959 139.060547 C 956.847598 146.491699 998.068301 155.342285 1039.452579 163.858887 C 1079.610049 172.208496 1126.392276 179.138672 1160.415713 204.354492 C 1180.780704 219.550781 1193.294131 242.762695 1205.153262 264.638672 C 1236.395938 322.000488 1250.136172 386.542969 1267.229678 449.081543 " transform="matrix(0.0477612,0,0,0.0467836,-24.981434,-1.052632)"/>
<path style="fill-rule:nonzero;fill:rgb(0%,74.901961%,7.058824%);fill-opacity:1;stroke-width:2;stroke-linecap:round;stroke-linejoin:round;stroke:rgb(0%,99.607843%,1.176471%);stroke-opacity:1;stroke-miterlimit:10;" d="M 1033.972842 333.188965 C 1030.292422 348.05127 1026.203067 359.824219 1018.433291 373.100098 C 1015.570743 378.026367 1012.626407 384.539062 1008.373477 388.630371 C 1002.321231 394.558594 993.57001 397.146973 986.20917 400.987793 " transform="matrix(0.0477612,0,0,0.0467836,-24.981434,-1.052632)"/>
<path style="fill-rule:nonzero;fill:rgb(0%,74.901961%,7.058824%);fill-opacity:1;stroke-width:2;stroke-linecap:round;stroke-linejoin:round;stroke:rgb(0%,99.607843%,1.176471%);stroke-opacity:1;stroke-miterlimit:10;" d="M 763.993594 101.15332 C 774.135196 109.753418 783.213565 118.6875 790.901553 129.541992 C 800.388858 142.817871 807.258975 156.427734 821.489932 165.445312 C 832.85834 172.625977 844.962832 180.474609 857.149112 186.152344 C 872.525088 193.333008 889.209659 198.092285 904.830997 204.855469 C 919.71625 211.368164 933.783633 220.719727 947.851016 228.735352 C 957.747256 234.32959 969.279239 238.754883 977.45795 246.770508 C 985.309512 254.368652 986.618106 264.054199 992.261416 272.654297 C 996.923282 280.001953 1002.321231 286.848633 1006.492374 294.530273 C 1012.462832 305.468262 1016.633975 317.658691 1025.54877 326.67627 C 1035.44501 336.695801 1046.895206 348.802734 1059.326846 355.73291 C 1086.970889 371.179688 1118.704288 377.859375 1145.612247 395.226562 C 1156.898868 402.490723 1165.404727 412.510254 1176.118838 420.442383 C 1190.349795 431.129883 1206.134707 438.811523 1221.510684 447.328125 C 1245.228946 460.437012 1265.512149 477.720703 1292.256534 484.817871 " transform="matrix(0.0477612,0,0,0.0467836,-24.981434,-1.052632)"/>
<path style="fill-rule:nonzero;fill:rgb(0%,74.901961%,7.058824%);fill-opacity:1;stroke-width:2;stroke-linecap:round;stroke-linejoin:round;stroke:rgb(0%,99.607843%,1.176471%);stroke-opacity:1;stroke-miterlimit:10;" d="M 1120.012881 387.210938 C 1110.852725 396.312012 1109.462344 408.585938 1102.265079 418.939453 C 1092.695987 432.799805 1078.46503 439.145508 1063.252627 444.906738 " transform="matrix(0.0477612,0,0,0.0467836,-24.981434,-1.052632)"/>
<path style="fill-rule:nonzero;fill:rgb(0%,74.901961%,7.058824%);fill-opacity:1;stroke-width:2;stroke-linecap:round;stroke-linejoin:round;stroke:rgb(0%,99.607843%,1.176471%);stroke-opacity:1;stroke-miterlimit:10;" d="M 1117.968204 379.195312 C 1131.626651 380.698242 1146.511905 382.535156 1160.170352 380.865234 C 1167.122256 380.030273 1173.665225 378.026367 1180.453555 376.439941 C 1188.059756 374.77002 1195.093448 373.601074 1201.881778 369.593262 C 1207.525088 366.253418 1211.614444 360.826172 1215.949161 356.066895 " transform="matrix(0.0477612,0,0,0.0467836,-24.981434,-1.052632)"/>
<path style="fill-rule:nonzero;fill:rgb(0%,74.901961%,7.058824%);fill-opacity:1;stroke-width:2;stroke-linecap:round;stroke-linejoin:round;stroke:rgb(0%,99.607843%,1.176471%);stroke-opacity:1;stroke-miterlimit:10;" d="M 1040.025088 327.177246 C 1062.843692 327.177246 1085.335147 327.09375 1108.071963 324.839355 C 1118.6225 323.753906 1130.890567 323.503418 1140.868594 319.579102 C 1161.724307 311.145996 1179.553897 294.864258 1185.278995 272.904785 " transform="matrix(0.0477612,0,0,0.0467836,-24.981434,-1.052632)"/>
<path style="fill-rule:nonzero;fill:rgb(0%,74.901961%,7.058824%);fill-opacity:1;stroke-width:2;stroke-linecap:round;stroke-linejoin:round;stroke:rgb(0%,99.607843%,1.176471%);stroke-opacity:1;stroke-miterlimit:10;" d="M 926.013858 207.193359 C 943.761661 209.280762 964.617374 211.618652 982.283389 207.61084 C 1011.236026 201.014648 1038.471133 184.899902 1065.215518 172.375488 " transform="matrix(0.0477612,0,0,0.0467836,-24.981434,-1.052632)"/>
<path style="fill-rule:nonzero;fill:rgb(0%,74.901961%,7.058824%);fill-opacity:1;stroke-width:2;stroke-linecap:round;stroke-linejoin:round;stroke:rgb(0%,99.607843%,1.176471%);stroke-opacity:1;stroke-miterlimit:10;" d="M 908.020694 213.205078 C 900.332706 224.310059 892.644717 235.665527 882.830264 245.100586 C 876.205508 251.446289 867.863223 255.871582 860.175235 260.881348 C 852.650821 265.807617 845.617129 271.485352 837.929141 276.495117 " transform="matrix(0.0477612,0,0,0.0467836,-24.981434,-1.052632)"/>
<path style="fill-rule:nonzero;fill:rgb(0%,74.901961%,7.058824%);fill-opacity:1;stroke-width:2;stroke-linecap:round;stroke-linejoin:round;stroke:rgb(0%,99.607843%,1.176471%);stroke-opacity:1;stroke-miterlimit:10;" d="M 974.022891 249.191895 C 969.115665 263.636719 969.115665 278.916504 964.944522 293.52832 C 962.490909 302.29541 958.156192 308.140137 953.248965 315.654785 C 948.01459 323.753906 943.843448 332.270508 936.727969 338.950195 C 928.385684 346.882324 917.671573 352.393066 908.102481 358.655273 " transform="matrix(0.0477612,0,0,0.0467836,-24.981434,-1.052632)"/>
<path style="fill-rule:nonzero;fill:rgb(0%,74.901961%,7.058824%);fill-opacity:1;stroke-width:2;stroke-linecap:round;stroke-linejoin:round;stroke:rgb(0%,99.607843%,1.176471%);stroke-opacity:1;stroke-miterlimit:10;" d="M 997.986514 245.184082 C 1023.01337 245.184082 1047.140567 241.259766 1072.003848 239.756836 C 1095.967471 238.337402 1120.91254 238.003418 1144.303653 231.824707 C 1156.489932 228.484863 1168.103702 223.391602 1180.453555 220.302246 " transform="matrix(0.0477612,0,0,0.0467836,-24.981434,-1.052632)"/>
</g>
</svg>
